# xmcd
#
# Track frame offsets:
#	150
#	19205
#	41621
#	64919
#	79767
#	97933
#	118096
#	140599
#
# Disc length: 2192 seconds
#
# Revision: 1
# Processed by: cddbd v1.5.2PL0 Copyright (c) Steve Scherf et al.
# Submitted via: EZCDAudioConverter 2.1.7.1
#
DISCID=68088e08
DTITLE=The Edge Of Daybreak - Eyes Of Love
DYEAR=1979
DGENRE=
TTITLE0=Eyes Of Love
TTITLE1=I Wanna Dance With You
TTITLE2=Let Us
TTITLE3=Let's Be Friends
TTITLE4=E.O.D. (Edge Of Daybreak)
TTITLE5=Your Destiny
TTITLE6=Bring Me You
TTITLE7=Our Love
EXTD=
EXTT0=
EXTT1=
EXTT2=
EXTT3=
EXTT4=
EXTT5=
EXTT6=
EXTT7=
PLAYORDER=
